<svg xmlns="http://www.w3.org/2000/svg" enable-background="new 0 0 24 24" viewBox="0 0 24 24"><path fill="#303c42" d="M22,3H2C0.897,3,0,3.897,0,5v14c0,1.103,0.897,2,2,2h20c1.103,0,2-0.897,2-2V5   C24,3.897,23.103,3,22,3z"/><polygon fill="#f2f2f2" points="19.979 4 12 9.879 4.021 4"/><path fill="#e53935" d="M1,19V5c0-0.551,0.448-1,1-1h0.336l9.367,6.902C11.792,10.967,11.896,11,12,11   s0.208-0.033,0.297-0.098L21.664,4H22c0.552,0,1,0.449,1,1v0.748l-11,8.13L3.797,7.815c-0.15-0.113-0.354-0.13-0.522-0.044   C3.106,7.856,3,8.028,3,8.217V20H2C1.448,20,1,19.551,1,19z"/><polygon fill="#fff" points="19.3 4.5 19.979 4 4.021 4 4.7 4.5" enable-background="new" opacity=".2"/><path fill="#fff" d="M22.5 4.5c.146 0 .283.035.408.092C22.751 4.245 22.405 4 22 4h-.336l-.679.5H22.5zM1.5 19.5v-14c0-.551.448-1 1-1h.514L2.336 4H2C1.448 4 1 4.449 1 5v14c0 .405.245.751.592.908C1.535 19.783 1.5 19.646 1.5 19.5z" enable-background="new" opacity=".2"/><path fill="#f2f2f2" d="M20,9.208V20H4V9.208l7.703,5.693c0.176,0.131,0.418,0.131,0.594,0L20,9.208z"/><path fill="#e53935" d="M22,20h-1V8.469l2-1.478V19C23,19.551,22.552,20,22,20z"/><linearGradient id="a" x1="16.505" x2="24.409" y1="13.9" y2="5.996" gradientTransform="matrix(1 0 0 -1 0 24)" gradientUnits="userSpaceOnUse"><stop offset="0" stop-opacity=".1"/><stop offset="1" stop-opacity="0"/></linearGradient><path fill="url(#a)" d="M21,8.469V20h1c0.552,0,1-0.449,1-1V6.991L21,8.469z M11.703,14.902L16.801,20H20V9.208   l-7.703,5.694C12.121,15.033,11.879,15.033,11.703,14.902z"/><linearGradient id="b" x1="-.708" x2="24.708" y1="17.926" y2="6.074" gradientTransform="matrix(1 0 0 -1 0 24)" gradientUnits="userSpaceOnUse"><stop offset="0" stop-color="#fff" stop-opacity=".2"/><stop offset="1" stop-color="#fff" stop-opacity="0"/></linearGradient><path fill="url(#b)" d="M22,3H2C0.897,3,0,3.897,0,5v14c0,1.103,0.897,2,2,2h20c1.103,0,2-0.897,2-2V5   C24,3.897,23.103,3,22,3z"/></svg>